<svg width="66" height="66" viewBox="0 0 66 66" fill="none" xmlns="http://www.w3.org/2000/svg">
<rect x="0.5" y="0.5" width="65" height="65" rx="11.5" fill="#1F1F1F"/>
<rect x="0.5" y="0.5" width="65" height="65" rx="11.5" stroke="#333333"/>
<path fill-rule="evenodd" clip-rule="evenodd" d="M43.6246 29.5441C43.672 35.4119 38.7821 40.839 32.9143 40.7917C27.0464 40.7443 22.4227 35.2404 22.3754 29.3726C22.328 23.5048 27.0464 18.7863 32.9143 18.8337C38.7821 18.881 43.5773 23.6762 43.6246 29.5441ZM33.7169 23.4375C33.1301 23.4328 32.6506 23.9046 32.6459 24.4914C32.6411 25.0782 33.113 25.5577 33.6998 25.5625C35.4481 25.5766 36.8818 27.0103 36.8959 28.7586C36.9006 29.3454 37.3801 29.8172 37.9669 29.8125C38.5537 29.8077 39.0255 29.3282 39.0208 28.7414C38.9973 25.8329 36.6254 23.461 33.7169 23.4375Z" fill="#CE7D63"/>
<path d="M36.07 41.8037C36.5406 43.3087 35.5653 44.8237 34.0627 45.129V47.1664C34.0627 47.7532 33.587 48.2289 33.0002 48.2289C32.4134 48.2289 31.9377 47.7532 31.9377 47.1664V45.129C30.435 44.8237 29.4597 43.3087 29.9304 41.8037L29.9401 41.7735C30.8812 42.0479 31.8728 42.1997 32.903 42.2081C33.9952 42.2169 35.0533 42.0628 36.0594 41.7705C36.0631 41.7816 36.0665 41.7927 36.07 41.8037Z" fill="#CE7D63"/>
</svg>
