<svg width="66" height="66" viewBox="0 0 66 66" fill="none" xmlns="http://www.w3.org/2000/svg">
<rect x="0.5" y="0.5" width="65" height="65" rx="11.5" fill="#1F1F1F"/>
<rect x="0.5" y="0.5" width="65" height="65" rx="11.5" stroke="#333333"/>
<path d="M18.8333 25.2084C18.8333 21.6876 21.6874 18.8334 25.2083 18.8334C28.7291 18.8334 31.5833 21.6876 31.5833 25.2084V29.4584C31.5833 29.9524 31.5833 30.1994 31.5289 30.4021C31.3816 30.9521 30.952 31.3817 30.402 31.5291C30.1993 31.5834 29.9523 31.5834 29.4583 31.5834H25.2083C21.6874 31.5834 18.8333 28.7292 18.8333 25.2084Z" fill="#CE7D63"/>
<path d="M34.4166 36.5417C34.4166 36.0477 34.4166 35.8006 34.4709 35.598C34.6183 35.048 35.0479 34.6184 35.5978 34.471C35.8005 34.4167 36.0475 34.4167 36.5416 34.4167H40.7916C44.3124 34.4167 47.1666 37.2709 47.1666 40.7917C47.1666 44.3125 44.3124 47.1667 40.7916 47.1667C37.2708 47.1667 34.4166 44.3125 34.4166 40.7917V36.5417Z" fill="#CE7D63"/>
<path d="M18.8333 40.7917C18.8333 37.2709 21.6874 34.4167 25.2083 34.4167H29.0333C29.9258 34.4167 30.3721 34.4167 30.713 34.5904C31.0129 34.7432 31.2567 34.987 31.4095 35.2869C31.5833 35.6278 31.5833 36.0741 31.5833 36.9667V40.7917C31.5833 44.3125 28.7291 47.1667 25.2083 47.1667C21.6874 47.1667 18.8333 44.3125 18.8333 40.7917Z" fill="#CE7D63"/>
<path d="M34.4166 25.2084C34.4166 21.6876 37.2708 18.8334 40.7916 18.8334C44.3124 18.8334 47.1666 21.6876 47.1666 25.2084C47.1666 28.7292 44.3124 31.5834 40.7916 31.5834H36.238C36.0266 31.5834 35.9208 31.5834 35.8319 31.5734C35.093 31.4901 34.5099 30.907 34.4266 30.1681C34.4166 30.0791 34.4166 29.9734 34.4166 29.7619V25.2084Z" fill="#CE7D63"/>
</svg>
