<svg width="66" height="66" viewBox="0 0 66 66" fill="none" xmlns="http://www.w3.org/2000/svg">
<rect x="0.5" y="0.5" width="65" height="65" rx="11.5" fill="#1F1F1F"/>
<rect x="0.5" y="0.5" width="65" height="65" rx="11.5" stroke="#333333"/>
<path fill-rule="evenodd" clip-rule="evenodd" d="M23.3265 20.4931C21.6667 22.1528 21.6667 24.8241 21.6667 30.1667V35.8334C21.6667 41.176 21.6667 43.8473 23.3265 45.507C24.9862 47.1667 27.6575 47.1667 33.0001 47.1667C38.3427 47.1667 41.014 47.1667 42.6737 45.507C44.3334 43.8473 44.3334 41.176 44.3334 35.8334V30.1667C44.3334 24.8241 44.3334 22.1528 42.6737 20.4931C41.014 18.8334 38.3427 18.8334 33.0001 18.8334C27.6575 18.8334 24.9862 18.8334 23.3265 20.4931ZM28.7501 22.0209C28.1633 22.0209 27.6876 22.4966 27.6876 23.0834C27.6876 23.6702 28.1633 24.1459 28.7501 24.1459H37.2501C37.8369 24.1459 38.3126 23.6702 38.3126 23.0834C38.3126 22.4966 37.8369 22.0209 37.2501 22.0209H28.7501ZM33.0001 42.9167C34.5649 42.9167 35.8334 41.6482 35.8334 40.0834C35.8334 38.5186 34.5649 37.25 33.0001 37.25C31.4353 37.25 30.1667 38.5186 30.1667 40.0834C30.1667 41.6482 31.4353 42.9167 33.0001 42.9167Z" fill="#CE7D63"/>
</svg>
