<svg width="266" height="77" viewBox="0 0 266 77" fill="none" xmlns="http://www.w3.org/2000/svg">
<rect x="12" y="13" width="52" height="52" rx="26" fill="#CE7D63"/>
<path d="M39.5 46.5L47 39L39.5 31.5M47 39H29" stroke="#0F0F0F" stroke-width="1.5" stroke-linecap="round" stroke-linejoin="round"/>
<path d="M67.666 63.6316C62.5222 69.6011 55.6705 73.8485 48.036 75.8003C40.4015 77.7521 32.352 77.3143 24.9743 74.5459C17.5966 71.7775 11.2461 66.812 6.7801 60.3197C2.31415 53.8274 -0.0520899 46.1211 0.000869498 38.2413C0.0538289 30.3614 2.52344 22.6876 7.07625 16.2559C11.6291 9.82428 18.0458 4.94453 25.46 2.27557C32.8743 -0.393391 40.929 -0.723011 48.5365 1.33121C56.144 3.38544 62.938 7.72457 68.0011 13.7627L66.6852 14.8662C61.8479 9.09737 55.357 4.95179 48.0888 2.9892C40.8206 1.02661 33.1252 1.34153 26.0417 3.89143C18.9582 6.44133 12.8277 11.1034 8.47797 17.2482C4.12825 23.393 1.7688 30.7245 1.7182 38.2528C1.6676 45.7811 3.9283 53.1437 8.19503 59.3464C12.4618 65.549 18.5291 70.2931 25.5777 72.938C32.6263 75.5829 40.3167 76.0012 47.6106 74.1365C54.9045 72.2718 61.4506 68.2138 66.365 62.5105L67.666 63.6316Z" fill="#CE7D63"/>
<path d="M72.9609 41.3125V40.9727H75.5508V41.2773C75.5508 42.2695 75.8633 43.0156 76.4883 43.5156C77.1211 44.0078 78 44.2539 79.125 44.2539C80.25 44.2539 81.1094 44.0078 81.7031 43.5156C82.3047 43.0234 82.6055 42.375 82.6055 41.5703C82.6055 40.8125 82.3203 40.2148 81.75 39.7773C81.1797 39.332 80.0586 38.8594 78.3867 38.3594C76.6055 37.8359 75.3086 37.2031 74.4961 36.4609C73.6836 35.7109 73.2773 34.6602 73.2773 33.3086C73.2773 31.9258 73.7891 30.7969 74.8125 29.9219C75.8359 29.0469 77.2383 28.6094 79.0195 28.6094C80.793 28.6094 82.207 29.0625 83.2617 29.9688C84.3242 30.8672 84.8555 32.0508 84.8555 33.5195V33.8125H82.2891V33.5547C82.2891 32.6875 82.0156 31.9961 81.4688 31.4805C80.9219 30.957 80.1094 30.6953 79.0312 30.6953C77.9375 30.6953 77.1328 30.918 76.6172 31.3633C76.1094 31.8086 75.8555 32.4102 75.8555 33.168C75.8555 33.8789 76.125 34.4375 76.6641 34.8438C77.2109 35.2422 78.3281 35.6914 80.0156 36.1914C81.7734 36.707 83.0742 37.3594 83.918 38.1484C84.7617 38.9375 85.1836 40.043 85.1836 41.4648C85.1836 42.9336 84.6367 44.1133 83.543 45.0039C82.4492 45.8867 80.9805 46.3281 79.1367 46.3281C77.2852 46.3281 75.793 45.8906 74.6602 45.0156C73.5273 44.1406 72.9609 42.9062 72.9609 41.3125ZM86.3086 31.0234V28.9375H99.3281V31.0234H94.125V46H91.5117V31.0234H86.3086ZM98.5078 46L104.707 28.8555H107.344L113.566 46H110.859L106.406 33.2266C106.32 32.9531 106.242 32.6953 106.172 32.4531C106.109 32.2109 106.051 31.9648 105.996 31.7148H105.902C105.84 31.9648 105.773 32.2109 105.703 32.4531C105.641 32.6953 105.562 32.9531 105.469 33.2266L101.027 46H98.5078ZM101.438 41.7344L102.105 39.7305H109.875L110.531 41.7344H101.438ZM115.266 46V28.9375H120.902C122.715 28.9375 124.113 29.3984 125.098 30.3203C126.09 31.2422 126.586 32.4844 126.586 34.0469C126.586 35.6172 126.09 36.8789 125.098 37.832C124.105 38.7773 122.707 39.25 120.902 39.25H117.855V46H115.266ZM117.855 37.2461H120.797C121.984 37.2461 122.812 36.9453 123.281 36.3438C123.75 35.7422 123.988 34.9844 123.996 34.0703C123.996 33.1641 123.758 32.4219 123.281 31.8438C122.812 31.2656 121.984 30.9727 120.797 30.9648H117.855V37.2461ZM124.523 46L120.48 38.1602L123.094 37.8438L127.418 46H124.523ZM127.23 31.0234V28.9375H140.25V31.0234H135.047V46H132.434V31.0234H127.23ZM145.5 46L151.699 28.8555H154.336L160.559 46H157.852L153.398 33.2266C153.312 32.9531 153.234 32.6953 153.164 32.4531C153.102 32.2109 153.043 31.9648 152.988 31.7148H152.895C152.832 31.9648 152.766 32.2109 152.695 32.4531C152.633 32.6953 152.555 32.9531 152.461 33.2266L148.02 46H145.5ZM148.43 41.7344L149.098 39.7305H156.867L157.523 41.7344H148.43ZM167.836 46V28.9375H173.637C175.48 28.9375 176.895 29.4141 177.879 30.3672C178.863 31.3203 179.355 32.6055 179.355 34.2227C179.355 35.832 178.863 37.1211 177.879 38.0898C176.902 39.0586 175.484 39.543 173.625 39.543H170.426V46H167.836ZM170.426 37.5039H173.461C174.688 37.5039 175.543 37.1953 176.027 36.5781C176.512 35.9531 176.754 35.1719 176.754 34.2344C176.754 33.2969 176.512 32.5234 176.027 31.9141C175.543 31.2969 174.688 30.9883 173.461 30.9883H170.426V37.5039ZM181.711 46V28.9375H187.348C189.16 28.9375 190.559 29.3984 191.543 30.3203C192.535 31.2422 193.031 32.4844 193.031 34.0469C193.031 35.6172 192.535 36.8789 191.543 37.832C190.551 38.7773 189.152 39.25 187.348 39.25H184.301V46H181.711ZM184.301 37.2461H187.242C188.43 37.2461 189.258 36.9453 189.727 36.3438C190.195 35.7422 190.434 34.9844 190.441 34.0703C190.441 33.1641 190.203 32.4219 189.727 31.8438C189.258 31.2656 188.43 30.9727 187.242 30.9648H184.301V37.2461ZM190.969 46L186.926 38.1602L189.539 37.8438L193.863 46H190.969ZM195.398 37.9844V36.9531C195.398 34.2266 196.059 32.1562 197.379 30.7422C198.707 29.3203 200.418 28.6094 202.512 28.6094C204.598 28.6094 206.305 29.3203 207.633 30.7422C208.961 32.1562 209.625 34.2266 209.625 36.9531V37.9844C209.625 40.7109 208.961 42.7852 207.633 44.207C206.305 45.6211 204.598 46.3281 202.512 46.3281C200.418 46.3281 198.707 45.6211 197.379 44.207C196.059 42.7852 195.398 40.7109 195.398 37.9844ZM198.047 38.1602C198.047 40.1602 198.453 41.6719 199.266 42.6953C200.078 43.7188 201.16 44.2305 202.512 44.2305C203.863 44.2305 204.945 43.7188 205.758 42.6953C206.57 41.6719 206.977 40.1602 206.977 38.1602V36.7773C206.977 34.7773 206.57 33.2656 205.758 32.2422C204.945 31.2188 203.863 30.707 202.512 30.707C201.16 30.707 200.078 31.2188 199.266 32.2422C198.453 33.2656 198.047 34.7773 198.047 36.7773V38.1602ZM211.113 41.1133V40.8906H213.656V41.1367C213.656 42.1914 213.895 42.9727 214.371 43.4805C214.855 43.9883 215.547 44.2422 216.445 44.2422C217.328 44.2422 218.012 43.9688 218.496 43.4219C218.988 42.8672 219.234 42.0078 219.234 40.8438V28.9375H221.836V40.7383C221.836 42.4961 221.352 43.8672 220.383 44.8516C219.422 45.8359 218.117 46.3281 216.469 46.3281C214.836 46.3281 213.535 45.8789 212.566 44.9805C211.598 44.082 211.113 42.793 211.113 41.1133ZM225.281 46V28.9375H235.887V31.0234H227.859V36.1914H234.797V38.2422H227.859V43.9258H236.004V46H225.281ZM237.867 37.9844V36.9531C237.867 34.2266 238.527 32.1562 239.848 30.7422C241.176 29.3203 242.863 28.6094 244.91 28.6094C246.918 28.6094 248.492 29.1523 249.633 30.2383C250.773 31.3164 251.344 32.6875 251.344 34.3516V34.6211H248.742V34.3164C248.742 33.2148 248.422 32.3398 247.781 31.6914C247.148 31.0352 246.188 30.707 244.898 30.707C243.594 30.707 242.539 31.1992 241.734 32.1836C240.93 33.1602 240.527 34.6836 240.527 36.7539V38.1836C240.527 40.1289 240.93 41.625 241.734 42.6719C242.539 43.7109 243.602 44.2305 244.922 44.2305C246.148 44.2305 247.074 43.8984 247.699 43.2344C248.324 42.5703 248.672 41.6914 248.742 40.5977V40.3281H251.344L251.332 40.6328C251.23 42.2578 250.637 43.6133 249.551 44.6992C248.473 45.7773 246.922 46.3164 244.898 46.3164C242.82 46.3164 241.129 45.6055 239.824 44.1836C238.52 42.7539 237.867 40.6875 237.867 37.9844ZM252.551 31.0234V28.9375H265.57V31.0234H260.367V46H257.754V31.0234H252.551Z" fill="#CE7D63"/>
</svg>
