<svg width="66" height="66" viewBox="0 0 66 66" fill="none" xmlns="http://www.w3.org/2000/svg">
<rect x="0.5" y="0.5" width="65" height="65" rx="11.5" fill="#1F1F1F"/>
<rect x="0.5" y="0.5" width="65" height="65" rx="11.5" stroke="#333333"/>
<path fill-rule="evenodd" clip-rule="evenodd" d="M47.1667 33C47.1667 40.8241 40.8241 47.1667 33 47.1667C25.176 47.1667 18.8334 40.8241 18.8334 33C18.8334 25.176 25.176 18.8334 33 18.8334C40.8241 18.8334 47.1667 25.176 47.1667 33ZM35.1081 25.1317C35.6749 25.2836 36.0113 25.8662 35.8594 26.433L32.1928 40.117C32.0409 40.6838 31.4583 41.0202 30.8915 40.8683C30.3247 40.7164 29.9884 40.1338 30.1402 39.567L33.8068 25.883C33.9587 25.3162 34.5413 24.9799 35.1081 25.1317ZM37.2071 27.9987C37.622 27.5838 38.2947 27.5838 38.7097 27.9987L39.0048 28.2939C39.9049 29.1939 40.6554 29.9444 41.1711 30.6203C41.7155 31.3337 42.0973 32.0875 42.0973 33C42.0973 33.9126 41.7155 34.6663 41.1711 35.3798C40.6554 36.0557 39.9049 36.8062 39.0049 37.7062L38.7097 38.0013C38.2947 38.4163 37.622 38.4163 37.2071 38.0013C36.7921 37.5864 36.7921 36.9137 37.2071 36.4987L37.4501 36.2557C38.4158 35.29 39.0629 34.6397 39.4817 34.0908C39.8818 33.5664 39.9723 33.2611 39.9723 33C39.9723 32.739 39.8818 32.4337 39.4817 31.9093C39.0629 31.3604 38.4158 30.7101 37.4501 29.7444L37.2071 29.5013C36.7921 29.0864 36.7921 28.4137 37.2071 27.9987ZM27.2907 27.9987C27.7056 27.5838 28.3783 27.5838 28.7933 27.9987C29.2082 28.4137 29.2082 29.0864 28.7933 29.5013L28.5502 29.7444C27.5845 30.7101 26.9374 31.3604 26.5186 31.9093C26.1185 32.4337 26.0281 32.739 26.0281 33C26.0281 33.2611 26.1185 33.5664 26.5186 34.0908C26.9374 34.6397 27.5845 35.29 28.5502 36.2557L28.7933 36.4987C29.2082 36.9137 29.2082 37.5864 28.7933 38.0013C28.3783 38.4163 27.7056 38.4163 27.2907 38.0013L26.9955 37.7062C26.0954 36.8062 25.3449 36.0557 24.8292 35.3798C24.2849 34.6663 23.9031 33.9126 23.9031 33C23.9031 32.0875 24.2849 31.3337 24.8292 30.6203C25.3449 29.9444 26.0955 29.1939 26.9955 28.2939L27.2907 27.9987Z" fill="#CE7D63"/>
</svg>
