<svg width="66" height="66" viewBox="0 0 66 66" fill="none" xmlns="http://www.w3.org/2000/svg">
<rect x="0.5" y="0.5" width="65" height="65" rx="11.5" fill="#1F1F1F"/>
<rect x="0.5" y="0.5" width="65" height="65" rx="11.5" stroke="#333333"/>
<path d="M21.731 23.7799L23.7799 21.731C25.7116 19.7992 26.6775 18.8334 27.8777 18.8334C29.078 18.8334 30.0438 19.7992 31.9756 21.731L28.5607 25.1458L21.731 31.9756L21.731 31.9756C19.7992 30.0438 18.8334 29.078 18.8334 27.8777C18.8334 26.6775 19.7992 25.7116 21.731 23.7799L21.731 23.7799Z" fill="#CE7D63"/>
<path d="M44.2691 42.2202L42.2202 44.2691C40.2884 46.2008 39.3226 47.1667 38.1223 47.1667C36.9221 47.1667 35.9563 46.2008 34.0245 44.2691L34.0245 44.2691L40.8542 37.4394L44.2691 34.0245C46.2008 35.9562 47.1667 36.9221 47.1667 38.1223C47.1667 39.3226 46.2008 40.2884 44.2691 42.2202Z" fill="#CE7D63"/>
<path d="M32.1502 41.7284L32.1502 41.7284L42.6276 31.2509C41.2017 30.6574 39.5127 29.6825 37.9154 28.0852C36.3178 26.4876 35.3428 24.7984 34.7494 23.3722L24.2717 33.8499L24.2717 33.85C23.4541 34.6675 23.0452 35.0764 22.6936 35.5271C22.2789 36.0589 21.9233 36.6342 21.6332 37.243C21.3872 37.7591 21.2044 38.3075 20.8388 39.4045L18.9105 45.1893C18.7306 45.7291 18.8711 46.3243 19.2734 46.7266C19.6758 47.129 20.271 47.2695 20.8108 47.0896L26.5955 45.1613C27.6925 44.7957 28.241 44.6128 28.7571 44.3669C29.3659 44.0768 29.9412 43.7212 30.4729 43.3064C30.9237 42.9549 31.3326 42.546 32.1502 41.7284Z" fill="#CE7D63"/>
<path d="M45.535 28.3435C47.7106 26.168 47.7106 22.6406 45.535 20.4651C43.3594 18.2895 39.8321 18.2895 37.6565 20.4651L36.3999 21.7217C36.4171 21.7737 36.435 21.8263 36.4535 21.8797C36.9141 23.2073 37.7831 24.9477 39.418 26.5826C41.0528 28.2174 42.7932 29.0865 44.1208 29.5471C44.174 29.5655 44.2264 29.5833 44.2781 29.6004L45.535 28.3435Z" fill="#CE7D63"/>
</svg>
