<svg width="66" height="66" viewBox="0 0 66 66" fill="none" xmlns="http://www.w3.org/2000/svg">
<rect x="0.5" y="0.5" width="65" height="65" rx="11.5" fill="#1F1F1F"/>
<rect x="0.5" y="0.5" width="65" height="65" rx="11.5" stroke="#333333"/>
<path d="M34.4671 21.1731L33.6553 21.6539C32.7636 22.182 32.3177 22.446 31.8266 22.5075C31.3354 22.569 30.8545 22.4211 29.8928 22.1251L29.0172 21.8557C25.6329 20.8142 23.9407 20.2935 22.9235 21.2245C21.9063 22.1555 22.2378 23.9216 22.9008 27.4539L23.0723 28.3677C23.2606 29.3715 23.3548 29.8734 23.2431 30.3637C23.1314 30.8539 22.8264 31.2772 22.2163 32.1236L21.661 32.8941C19.5143 35.8727 18.4409 37.362 18.9646 38.5966C19.4882 39.8313 21.262 39.9936 24.8097 40.3183L25.7276 40.4023C26.7357 40.4946 27.2398 40.5408 27.6619 40.7823C28.084 41.0238 28.3764 41.4333 28.9611 42.2523L29.4934 42.998C31.551 45.8803 32.5798 47.3214 33.9207 47.1535C35.2615 46.9856 36.0263 45.3198 37.556 41.9882L37.9517 41.1263C38.1738 40.6425 38.3392 40.2822 38.4976 40.0002L44.9987 46.5013C45.4137 46.9162 46.0864 46.9162 46.5013 46.5013C46.9163 46.0864 46.9163 45.4136 46.5013 44.9987L40.223 38.7204C40.3958 38.6575 40.5888 38.5899 40.806 38.5138L41.6904 38.2041C45.1088 37.0069 46.818 36.4083 47.123 35.0699C47.428 33.7314 46.1269 32.5396 43.5246 30.1558L42.8513 29.5391C42.1118 28.8617 41.7421 28.523 41.5502 28.0708C41.3584 27.6185 41.3662 27.1038 41.3819 26.0746L41.3961 25.1374C41.4512 21.5152 41.4787 19.7041 40.3264 19.0449C39.1741 18.3856 37.6051 19.3148 34.4671 21.1731Z" fill="#CE7D63"/>
</svg>
